# xmcd
# Track frame offsets:
# 150
# 15064
# 40064
# 63804
# 81449
# 100981
# 118431
# 136566
# 154586
# 169881
# 193124
# 205795
# 220949
# 246221
# 264980
#
# Disc length: 3760 seconds
# Revision: 0
# Processed by: cddbd v1.4PL0 Copyright (c) Steve Scherf et al.
# Submitted via: VisiTrax 2.9.3.171 - For more info visit www.synapsa.com
#
DISCID=c50eae0f
DTITLE=Various Artist - Blue Rose Collection Vol. 9
DYEAR=1900
DGENRE=
TTITLE0=Jason Ringenberg - Honky tonk maniac from Mars
TTITLE1=Stephen Bruton - Teach me how to stay
TTITLE2=Bottle Rockets - At the crossroads
TTITLE3=Michael Hall and The Woodpeckers - Sometimes I wish I never heard The Ro
TTITLE3=lling Stones
TTITLE4=Continental Drifters - I'm a dreamer
TTITLE5=Elliott Murphy - Irish eyes
TTITLE6=Chuck Prophet - Run Primo, Run
TTITLE7=Hooblers - Broken
TTITLE8=Julian Dawson - Freedom of the highway
TTITLE9=Say ZuZu - Independence Day
TTITLE10=Todd Thibaud - Barroom Girls
TTITLE11=Jolene - Upstairs at The Flying H.
TTITLE12=Jon Dee Graham - Home
TTITLE13=Little Blue - Willow Lane
TTITLE14=Mark Eitzel - Snowbird
EXTD=submitted by Francesco W. Magni
EXTT0=
EXTT1=
EXTT2=
EXTT3=
EXTT4=
EXTT5=
EXTT6=
EXTT7=
EXTT8=
EXTT9=
EXTT10=
EXTT11=
EXTT12=
EXTT13=
EXTT14=
PLAYORDER=
